<mxfile host="app.diagrams.net" modified="2022-08-15T04:09:02.785Z" agent="5.0 (Windows NT 10.0; Win64; x64) AppleWebKit/537.36 (KHTML, like Gecko) Chrome/104.0.0.0 Safari/537.36" etag="gPb4GHVZofv89A0yFbnB" version="20.2.3" type="github">
  <diagram id="C5RBs43oDa-KdzZeNtuy" name="Page-1">
    <mxGraphModel dx="2094" dy="957" grid="1" gridSize="10" guides="1" tooltips="1" connect="1" arrows="1" fold="1" page="1" pageScale="1" pageWidth="827" pageHeight="1169" math="0" shadow="0">
      <root>
        <mxCell id="WIyWlLk6GJQsqaUBKTNV-0" />
        <mxCell id="WIyWlLk6GJQsqaUBKTNV-1" parent="WIyWlLk6GJQsqaUBKTNV-0" />
        <mxCell id="aiMPYIWkzQezv_9geTnE-0" value="&lt;p style=&quot;margin:0px;margin-top:4px;text-align:center;&quot;&gt;&lt;i&gt;&amp;lt;&amp;lt;Interface&amp;gt;&amp;gt;&lt;/i&gt;&lt;br&gt;&lt;b&gt;IShape&lt;/b&gt;&lt;/p&gt;&lt;hr size=&quot;1&quot;&gt;&lt;p style=&quot;margin:0px;margin-left:4px;&quot;&gt;+ draw(Graphics2D g): void&lt;br&gt;+ selectDraw(Graphics2D g): void&lt;/p&gt;&lt;p style=&quot;margin:0px;margin-left:4px;&quot;&gt;+ getSize(): int&lt;/p&gt;&lt;p style=&quot;margin:0px;margin-left:4px;&quot;&gt;+ getGroup(): ShapeGroup&lt;/p&gt;&lt;p style=&quot;margin:0px;margin-left:4px;&quot;&gt;+ setGroupy(ShapeGroup shape Group): void&lt;/p&gt;&lt;p style=&quot;margin:0px;margin-left:4px;&quot;&gt;+ getShapeConfig(): IShapeConfiguration&lt;/p&gt;&lt;p style=&quot;margin:0px;margin-left:4px;&quot;&gt;&lt;br&gt;&lt;/p&gt;" style="verticalAlign=top;align=left;overflow=fill;fontSize=12;fontFamily=Helvetica;html=1;" vertex="1" parent="WIyWlLk6GJQsqaUBKTNV-1">
          <mxGeometry x="320" y="70" width="310" height="140" as="geometry" />
        </mxCell>
        <mxCell id="aiMPYIWkzQezv_9geTnE-1" value="&lt;p style=&quot;margin:0px;margin-top:4px;text-align:center;&quot;&gt;&lt;b&gt;ShapeGroup&lt;/b&gt;&lt;/p&gt;&lt;hr size=&quot;1&quot;&gt;&lt;p style=&quot;margin:0px;margin-left:4px;&quot;&gt;+ groupedShapes ShapeGroupConfiguration&lt;/p&gt;&lt;p style=&quot;margin:0px;margin-left:4px;&quot;&gt;+ parentShapeGroup: ShapeGroup&lt;/p&gt;&lt;hr size=&quot;1&quot;&gt;&lt;p style=&quot;margin:0px;margin-left:4px;&quot;&gt;&amp;nbsp;&lt;span style=&quot;background-color: initial;&quot;&gt;+ draw(Graphics2D g): void&lt;/span&gt;&lt;/p&gt;&lt;p style=&quot;margin: 0px 0px 0px 4px;&quot;&gt;+ selectDraw(Graphics2D g): void&lt;/p&gt;&lt;p style=&quot;margin: 0px 0px 0px 4px;&quot;&gt;+ getSize(): int&lt;/p&gt;&lt;p style=&quot;margin: 0px 0px 0px 4px;&quot;&gt;+ getGroup(): ShapeGroup&lt;/p&gt;&lt;p style=&quot;margin: 0px 0px 0px 4px;&quot;&gt;+ setGroupy(ShapeGroup shape Group): void&lt;/p&gt;&lt;p style=&quot;margin: 0px 0px 0px 4px;&quot;&gt;+ getShapeConfig(): IShapeConfiguration&lt;/p&gt;" style="verticalAlign=top;align=left;overflow=fill;fontSize=12;fontFamily=Helvetica;html=1;" vertex="1" parent="WIyWlLk6GJQsqaUBKTNV-1">
          <mxGeometry x="20" y="350" width="260" height="190" as="geometry" />
        </mxCell>
        <mxCell id="aiMPYIWkzQezv_9geTnE-3" value="" style="endArrow=block;dashed=1;endFill=0;endSize=12;html=1;rounded=0;entryX=0.432;entryY=1.029;entryDx=0;entryDy=0;entryPerimeter=0;exitX=0.369;exitY=-0.011;exitDx=0;exitDy=0;exitPerimeter=0;" edge="1" parent="WIyWlLk6GJQsqaUBKTNV-1" source="aiMPYIWkzQezv_9geTnE-1" target="aiMPYIWkzQezv_9geTnE-0">
          <mxGeometry width="160" relative="1" as="geometry">
            <mxPoint x="190" y="290" as="sourcePoint" />
            <mxPoint x="350" y="290" as="targetPoint" />
          </mxGeometry>
        </mxCell>
        <mxCell id="aiMPYIWkzQezv_9geTnE-4" value="" style="endArrow=block;dashed=1;endFill=0;endSize=12;html=1;rounded=0;entryX=0.645;entryY=1.007;entryDx=0;entryDy=0;entryPerimeter=0;exitX=0.5;exitY=0;exitDx=0;exitDy=0;" edge="1" parent="WIyWlLk6GJQsqaUBKTNV-1" source="aiMPYIWkzQezv_9geTnE-5" target="aiMPYIWkzQezv_9geTnE-0">
          <mxGeometry width="160" relative="1" as="geometry">
            <mxPoint x="601.04" y="289.01" as="sourcePoint" />
            <mxPoint x="760" y="280" as="targetPoint" />
          </mxGeometry>
        </mxCell>
        <mxCell id="aiMPYIWkzQezv_9geTnE-5" value="&lt;p style=&quot;margin:0px;margin-top:4px;text-align:center;&quot;&gt;&lt;b&gt;Shape&lt;/b&gt;&lt;/p&gt;&lt;hr size=&quot;1&quot;&gt;&lt;p style=&quot;margin:0px;margin-left:4px;&quot;&gt;+ groupedShapes ShapeGroupConfiguration&lt;/p&gt;&lt;p style=&quot;margin:0px;margin-left:4px;&quot;&gt;+ parentShapeGroup: ShapeGroup&lt;/p&gt;&lt;hr size=&quot;1&quot;&gt;&lt;p style=&quot;margin:0px;margin-left:4px;&quot;&gt;&amp;nbsp;&lt;span style=&quot;background-color: initial;&quot;&gt;+ draw(Graphics2D g): void&lt;/span&gt;&lt;/p&gt;&lt;p style=&quot;margin: 0px 0px 0px 4px;&quot;&gt;+ selectDraw(Graphics2D g): void&lt;/p&gt;&lt;p style=&quot;margin: 0px 0px 0px 4px;&quot;&gt;+ getSize(): int&lt;/p&gt;&lt;p style=&quot;margin: 0px 0px 0px 4px;&quot;&gt;+ getGroup(): ShapeGroup&lt;/p&gt;&lt;p style=&quot;margin: 0px 0px 0px 4px;&quot;&gt;+ setGroupy(ShapeGroup shape Group): void&lt;/p&gt;&lt;p style=&quot;margin: 0px 0px 0px 4px;&quot;&gt;+ getShapeConfig(): IShapeConfiguration&lt;/p&gt;" style="verticalAlign=top;align=left;overflow=fill;fontSize=12;fontFamily=Helvetica;html=1;" vertex="1" parent="WIyWlLk6GJQsqaUBKTNV-1">
          <mxGeometry x="380" y="350" width="260" height="190" as="geometry" />
        </mxCell>
        <mxCell id="aiMPYIWkzQezv_9geTnE-14" value="Ellipse" style="swimlane;fontStyle=0;childLayout=stackLayout;horizontal=1;startSize=26;fillColor=none;horizontalStack=0;resizeParent=1;resizeParentMax=0;resizeLast=0;collapsible=1;marginBottom=0;" vertex="1" parent="WIyWlLk6GJQsqaUBKTNV-1">
          <mxGeometry x="630" y="650" width="140" height="52" as="geometry" />
        </mxCell>
        <mxCell id="aiMPYIWkzQezv_9geTnE-15" value="..." style="text;strokeColor=none;fillColor=none;align=left;verticalAlign=top;spacingLeft=4;spacingRight=4;overflow=hidden;rotatable=0;points=[[0,0.5],[1,0.5]];portConstraint=eastwest;" vertex="1" parent="aiMPYIWkzQezv_9geTnE-14">
          <mxGeometry y="26" width="140" height="26" as="geometry" />
        </mxCell>
        <mxCell id="aiMPYIWkzQezv_9geTnE-18" value="Rectangle" style="swimlane;fontStyle=0;childLayout=stackLayout;horizontal=1;startSize=26;fillColor=none;horizontalStack=0;resizeParent=1;resizeParentMax=0;resizeLast=0;collapsible=1;marginBottom=0;" vertex="1" parent="WIyWlLk6GJQsqaUBKTNV-1">
          <mxGeometry x="450" y="670" width="140" height="52" as="geometry" />
        </mxCell>
        <mxCell id="aiMPYIWkzQezv_9geTnE-19" value="..." style="text;strokeColor=none;fillColor=none;align=left;verticalAlign=top;spacingLeft=4;spacingRight=4;overflow=hidden;rotatable=0;points=[[0,0.5],[1,0.5]];portConstraint=eastwest;" vertex="1" parent="aiMPYIWkzQezv_9geTnE-18">
          <mxGeometry y="26" width="140" height="26" as="geometry" />
        </mxCell>
        <mxCell id="aiMPYIWkzQezv_9geTnE-20" value="Triangle" style="swimlane;fontStyle=0;childLayout=stackLayout;horizontal=1;startSize=26;fillColor=none;horizontalStack=0;resizeParent=1;resizeParentMax=0;resizeLast=0;collapsible=1;marginBottom=0;" vertex="1" parent="WIyWlLk6GJQsqaUBKTNV-1">
          <mxGeometry x="260" y="660" width="140" height="52" as="geometry" />
        </mxCell>
        <mxCell id="aiMPYIWkzQezv_9geTnE-21" value="..." style="text;strokeColor=none;fillColor=none;align=left;verticalAlign=top;spacingLeft=4;spacingRight=4;overflow=hidden;rotatable=0;points=[[0,0.5],[1,0.5]];portConstraint=eastwest;" vertex="1" parent="aiMPYIWkzQezv_9geTnE-20">
          <mxGeometry y="26" width="140" height="26" as="geometry" />
        </mxCell>
        <mxCell id="aiMPYIWkzQezv_9geTnE-23" value="Extends" style="endArrow=block;endSize=16;endFill=0;html=1;rounded=0;entryX=0.5;entryY=1;entryDx=0;entryDy=0;exitX=0.5;exitY=0;exitDx=0;exitDy=0;" edge="1" parent="WIyWlLk6GJQsqaUBKTNV-1" source="aiMPYIWkzQezv_9geTnE-20" target="aiMPYIWkzQezv_9geTnE-5">
          <mxGeometry width="160" relative="1" as="geometry">
            <mxPoint x="420" y="580" as="sourcePoint" />
            <mxPoint x="580" y="590" as="targetPoint" />
          </mxGeometry>
        </mxCell>
        <mxCell id="aiMPYIWkzQezv_9geTnE-24" value="Extends" style="endArrow=block;endSize=16;endFill=0;html=1;rounded=0;entryX=0.677;entryY=1.011;entryDx=0;entryDy=0;exitX=0.45;exitY=-0.019;exitDx=0;exitDy=0;exitPerimeter=0;entryPerimeter=0;" edge="1" parent="WIyWlLk6GJQsqaUBKTNV-1" source="aiMPYIWkzQezv_9geTnE-14" target="aiMPYIWkzQezv_9geTnE-5">
          <mxGeometry width="160" relative="1" as="geometry">
            <mxPoint x="710" y="551" as="sourcePoint" />
            <mxPoint x="780" y="500" as="targetPoint" />
          </mxGeometry>
        </mxCell>
        <mxCell id="aiMPYIWkzQezv_9geTnE-25" value="Extends" style="endArrow=block;endSize=16;endFill=0;html=1;rounded=0;entryX=0.55;entryY=0.995;entryDx=0;entryDy=0;exitX=0.5;exitY=0;exitDx=0;exitDy=0;entryPerimeter=0;" edge="1" parent="WIyWlLk6GJQsqaUBKTNV-1" source="aiMPYIWkzQezv_9geTnE-18" target="aiMPYIWkzQezv_9geTnE-5">
          <mxGeometry width="160" relative="1" as="geometry">
            <mxPoint x="620" y="571" as="sourcePoint" />
            <mxPoint x="690" y="520" as="targetPoint" />
          </mxGeometry>
        </mxCell>
      </root>
    </mxGraphModel>
  </diagram>
</mxfile>
